<svg xmlns="http://www.w3.org/2000/svg" viewBox="0 0 100 100" role="img" aria-labelledby="title">
  <title id="title">知音</title>
  <rect width="100" height="100" rx="22" fill="#faf9f6" />
  <g transform="translate(4 25) scale(.92)">
    <path fill="#1c1a16" d="M25.5 5.6c4.4-.4 5.5 4.4 8.4 6.1 2.6 1.5 6.1.6 7.8 3.4 1.8 2.9-.7 5.8.6 8.7 1.5 3.2 4.8 5.2 3.7 8.8-1 3.3-4.8 3.6-6.2 6.7-1.5 3.4-2.9 6.8-6.9 7.2-3.7.4-5.7-3.1-9.1-3.8-3.5-.8-7.2.1-9.3-3.1-2.1-3.2.8-6.1-.1-9.6-.9-3.3-4.1-5.6-2.7-9 1.3-3.3 5.2-3.5 7.5-5.8 2.8-2.7 2.4-9.2 6.3-9.6Z" />
    <path fill="none" stroke="#1c1a16" stroke-linecap="round" stroke-linejoin="round" stroke-width="3.2" d="M75.3 8.4c4-.2 5.1 4.1 8.2 5.5 2.8 1.2 6.2 1.7 7 5 .9 3.3-2.2 5.5-1.4 8.8.8 3.2 3.1 6 .9 8.9-2.1 2.8-5.6 2.1-7.9 4.7-2.3 2.7-3.7 6.4-7.6 6.1-3.6-.2-4.8-4-7.8-5.6-3-1.7-6.9-1.8-7.8-5.3-.8-3.3 2.2-5.5 1.5-8.8-.6-3.1-3.6-5.5-2-8.6 1.6-3.2 5.5-2.9 8-5.4 2.5-2.4 5.2-5.1 8.9-5.3Z" />
    <path fill="none" stroke="#c89224" stroke-linecap="round" stroke-width="2.7" d="M42.5 28.8Q53 38 65.3 28.7" />
    <circle cx="42.5" cy="28.8" r="4.6" fill="#faf9f6" />
    <circle cx="42.5" cy="28.8" r="3.1" fill="#c89224" />
    <circle cx="65.3" cy="28.7" r="3.1" fill="#c89224" />
  </g>
</svg>
